<?xml version="1.0" standalone="no"?>
<!DOCTYPE svg PUBLIC "-//W3C//DTD SVG 20010904//EN"
 "http://www.w3.org/TR/2001/REC-SVG-20010904/DTD/svg10.dtd">
<svg version="1.0" xmlns="http://www.w3.org/2000/svg"
 width="1920.000000pt" height="1920.000000pt" viewBox="0 0 1920.000000 1920.000000"
 preserveAspectRatio="xMidYMid meet">

<g transform="translate(0.000000,1920.000000) scale(0.100000,-0.100000)"
fill="#000000" stroke="none">
<path d="M2855 15654 c-84 -20 -248 -103 -320 -161 -122 -99 -217 -250 -254
-404 l-21 -87 0 -5402 0 -5402 21 -87 c37 -154 132 -305 254 -404 74 -60 238
-141 325 -162 58 -13 811 -15 6740 -15 5929 0 6682 2 6740 15 87 21 251 102
325 162 122 99 217 250 254 404 l21 87 0 5402 0 5402 -21 87 c-37 154 -132
305 -254 404 -74 60 -238 141 -325 162 -58 13 -810 15 -6745 14 -5778 -1
-6688 -3 -6740 -15z m13432 -414 c104 -36 185 -118 226 -227 22 -58 22 -64 25
-840 l3 -783 -6941 0 -6941 0 3 783 c3 776 3 782 25 840 41 108 122 190 224
227 53 19 152 19 6687 20 6573 0 6633 0 6689 -20z m251 -6622 l-3 -4373 -22
-58 c-41 -109 -122 -191 -226 -227 -56 -20 -117 -20 -6687 -20 -6570 0 -6631
0 -6687 20 -104 36 -185 118 -226 227 l-22 58 -3 4373 -2 4372 6940 0 6940 0
-2 -4372z"/>
<path d="M4175 14661 c-61 -16 -105 -41 -150 -82 -178 -164 -128 -460 93 -562
66 -30 206 -30 274 1 63 28 134 95 166 157 24 45 27 61 27 155 0 89 -3 111
-22 146 -27 51 -132 149 -181 170 -43 18 -163 27 -207 15z"/>
<path d="M5495 14661 c-60 -17 -82 -30 -139 -81 -71 -66 -102 -119 -114 -192
-18 -117 19 -230 102 -306 71 -66 124 -85 231 -86 79 -1 97 2 145 26 71 35
141 108 170 177 31 77 26 212 -12 286 -32 63 -103 129 -166 156 -52 23 -169
33 -217 20z"/>
<path d="M6825 14661 c-61 -16 -105 -41 -150 -82 -143 -132 -145 -362 -5 -493
76 -71 127 -90 235 -90 70 0 101 5 137 22 63 28 134 95 166 157 24 45 27 61
27 155 0 96 -2 109 -27 151 -33 56 -127 144 -177 165 -42 18 -163 27 -206 15z"/>
<path d="M10272 11439 c-58 -17 -106 -76 -129 -160 -97 -349 -163 -595 -177
-654 -8 -38 -34 -135 -56 -215 -23 -80 -66 -235 -97 -345 -30 -110 -60 -222
-66 -250 -10 -49 -48 -193 -127 -480 -87 -313 -120 -439 -125 -467 -3 -17 -26
-105 -51 -197 -26 -91 -61 -220 -79 -286 -54 -195 -101 -376 -118 -445 -15
-66 -66 -252 -157 -575 -28 -99 -55 -202 -61 -230 -14 -67 -50 -202 -111 -420
-95 -343 -130 -470 -140 -520 -5 -27 -28 -115 -50 -195 -89 -319 -91 -335 -59
-405 37 -82 122 -131 213 -123 91 9 152 78 187 214 13 49 39 142 57 206 19 64
63 231 99 370 35 139 87 334 115 433 47 168 74 269 152 570 17 66 48 181 69
255 102 367 137 498 144 535 3 22 21 94 40 160 37 131 135 489 165 600 11 39
37 140 58 225 22 85 63 238 92 340 28 102 67 246 86 320 87 331 126 477 174
650 55 195 91 335 108 410 5 25 35 136 66 248 31 111 56 221 56 245 -1 139
-133 227 -278 186z"/>
<path d="M7549 10239 c-35 -10 -59 -27 -325 -233 -178 -138 -360 -277 -569
-436 -98 -74 -206 -158 -241 -187 -57 -48 -213 -168 -682 -526 -308 -234 -326
-249 -349 -297 -42 -82 -23 -191 43 -251 16 -15 117 -94 225 -176 108 -83 207
-160 220 -172 13 -12 92 -74 174 -137 83 -62 236 -179 340 -259 105 -80 249
-190 320 -244 72 -54 142 -110 157 -124 14 -13 111 -89 215 -168 103 -79 231
-177 283 -217 177 -137 217 -154 303 -131 93 24 147 98 147 199 0 91 -24 127
-138 214 -56 42 -113 87 -129 102 -15 14 -88 71 -161 127 -239 182 -313 239
-570 437 -139 107 -273 211 -299 230 -25 19 -63 49 -84 65 -152 119 -283 220
-396 307 -73 56 -133 103 -133 105 0 1 19 15 43 30 48 32 51 34 92 69 17 13
81 64 144 112 62 48 187 143 276 212 90 69 243 186 341 260 97 74 200 154 228
177 53 43 327 256 521 403 214 163 232 178 249 220 30 74 17 179 -28 228 -47
53 -146 80 -217 61z"/>
<path d="M11545 10241 c-73 -19 -124 -61 -144 -120 -16 -48 -14 -124 5 -171
17 -42 35 -57 249 -220 194 -147 468 -360 521 -403 28 -23 131 -103 228 -177
98 -74 251 -191 341 -260 89 -69 214 -164 276 -212 63 -48 128 -99 144 -112
41 -35 44 -37 93 -69 23 -15 42 -29 42 -30 0 -2 -60 -49 -132 -105 -73 -56
-184 -141 -246 -189 -62 -48 -133 -104 -158 -123 -26 -19 -64 -48 -85 -65 -54
-43 -526 -406 -636 -490 -50 -38 -151 -116 -225 -172 -73 -56 -146 -113 -161
-127 -16 -15 -73 -60 -129 -102 -114 -87 -138 -123 -138 -214 0 -101 54 -175
147 -199 86 -23 126 -6 303 131 52 40 180 138 283 217 104 79 201 155 215 168
15 14 86 70 157 124 72 54 216 164 320 244 105 80 258 197 340 259 83 63 161
125 174 137 13 12 112 89 220 172 108 82 209 161 225 176 66 60 85 169 44 251
-24 48 -42 63 -350 297 -470 359 -625 478 -682 526 -34 29 -107 86 -161 127
-371 281 -721 549 -818 628 -49 39 -103 78 -121 86 -41 19 -103 27 -141 17z"/>
</g>
</svg>
