<?xml version="1.0" standalone="no"?>
<!DOCTYPE svg PUBLIC "-//W3C//DTD SVG 20010904//EN"
 "http://www.w3.org/TR/2001/REC-SVG-20010904/DTD/svg10.dtd">
<svg version="1.0" xmlns="http://www.w3.org/2000/svg"
 width="250.000000pt" height="250.000000pt" viewBox="0 0 250.000000 250.000000"
 preserveAspectRatio="xMidYMid meet">

<g transform="translate(0.000000,250.000000) scale(0.100000,-0.100000)"
fill="#000000" stroke="none">
<path d="M196 1460 l-69 -27 71 -26 71 -26 72 26 c40 15 66 29 58 32 -8 2 -41
14 -74 26 l-60 22 -69 -27z"/>
<path d="M130 1374 c0 -3 19 -36 43 -72 24 -37 46 -72 50 -78 3 -6 -20 -53
-53 -105 l-59 -94 31 -3 c36 -4 39 -2 88 78 l38 61 43 -70 c42 -67 46 -71 81
-71 l37 0 -60 95 -61 95 51 81 c29 45 50 83 49 85 -2 2 -21 -2 -43 -8 -28 -9
-45 -23 -64 -55 -14 -24 -28 -43 -31 -43 -3 0 -16 18 -30 40 -16 25 -38 45
-62 55 -42 17 -48 18 -48 9z"/>
<path d="M522 1301 c-68 -43 -91 -132 -55 -208 27 -58 105 -93 173 -78 36 8
100 60 100 81 0 21 -54 17 -75 -6 -18 -20 -75 -27 -110 -14 -14 6 -45 53 -45
69 0 3 54 5 120 5 l120 0 0 30 c0 38 -20 77 -54 109 -37 35 -127 41 -174 12z
m132 -52 c48 -37 35 -49 -54 -49 -63 0 -80 3 -80 14 0 22 49 56 80 56 15 0 39
-9 54 -21z"/>
<path d="M817 1314 c-4 -4 -7 -72 -7 -151 l0 -143 35 0 35 0 0 67 0 67 68 -67
c60 -60 72 -67 107 -67 l40 0 -78 78 -77 77 72 73 73 72 -40 0 c-36 0 -47 -6
-100 -60 l-60 -61 -5 58 c-5 53 -7 58 -30 61 -14 2 -29 0 -33 -4z"/>
<path d="M1200 1313 c-31 -11 -81 -69 -91 -105 -21 -81 37 -179 115 -194 51
-9 113 11 148 48 58 62 10 98 -50 38 -63 -62 -152 -23 -152 67 0 59 32 93 90
93 31 0 47 -6 64 -25 25 -27 76 -35 76 -11 0 20 -38 65 -70 81 -28 15 -100 19
-130 8z"/>
<path d="M1526 1308 c-3 -7 -12 -58 -21 -113 -17 -105 -26 -125 -56 -125 -14
0 -19 -7 -19 -30 0 -26 4 -30 26 -30 59 0 86 37 103 140 21 119 16 111 69 108
l47 -3 3 -117 3 -118 30 0 30 0 -3 148 -3 147 -103 3 c-77 2 -103 -1 -106 -10z"/>
<path d="M1870 1298 c-68 -47 -87 -127 -49 -204 22 -47 82 -84 134 -84 43 0
108 36 128 70 l18 30 -30 0 c-18 0 -40 -9 -51 -20 -29 -29 -100 -28 -127 3
-11 12 -23 30 -26 40 -6 16 4 17 113 17 l120 0 0 36 c0 107 -139 174 -230 112z
m143 -60 l32 -33 -84 -3 c-46 -2 -86 -1 -88 2 -9 9 19 47 40 56 41 17 68 11
100 -22z"/>
<path d="M2140 1290 c0 -29 2 -30 45 -30 l45 0 0 -120 0 -120 35 0 35 0 0 120
0 120 45 0 c43 0 45 1 45 30 l0 30 -125 0 -125 0 0 -30z"/>
</g>
</svg>
