<?xml version="1.0" standalone="no"?>
<!DOCTYPE svg PUBLIC "-//W3C//DTD SVG 20010904//EN"
 "http://www.w3.org/TR/2001/REC-SVG-20010904/DTD/svg10.dtd">
<svg version="1.0" xmlns="http://www.w3.org/2000/svg"
 width="1280.000000pt" height="1280.000000pt" viewBox="0 0 1280.000000 1280.000000"
 preserveAspectRatio="xMidYMid meet">

<g transform="translate(0.000000,1280.000000) scale(0.100000,-0.100000)"
fill="#000000" stroke="none">
<path d="M5745 12494 c-357 -134 -690 -259 -740 -278 -84 -33 -938 -352 -1015
-380 -19 -7 -150 -56 -290 -109 -140 -52 -316 -118 -390 -145 -74 -27 -184
-69 -245 -92 -163 -63 -243 -93 -415 -156 -251 -92 -290 -107 -284 -113 5 -5
23 -12 414 -154 466 -169 648 -236 815 -297 94 -34 287 -105 430 -157 143 -52
325 -119 405 -148 164 -61 888 -324 1235 -450 127 -46 336 -122 465 -170 129
-48 244 -89 255 -91 11 -3 256 81 545 186 289 106 698 255 910 331 212 77 457
167 545 199 88 33 273 100 410 150 138 50 279 102 315 115 62 23 310 113 785
286 121 44 286 105 367 135 80 29 151 54 157 54 28 0 16 20 -21 33 -122 44
-445 164 -593 220 -49 19 -171 64 -270 101 -99 37 -214 80 -255 96 -75 29
-404 152 -470 176 -88 32 -933 348 -1000 374 -41 16 -257 97 -480 180 -223 83
-427 160 -455 170 -79 31 -478 180 -479 179 0 0 -293 -110 -651 -245z"/>
<path d="M9690 9674 c-399 -145 -795 -289 -880 -320 -85 -31 -306 -111 -490
-179 -184 -67 -345 -126 -358 -130 -21 -6 -48 -44 -153 -212 -20 -32 -150
-242 -289 -468 -140 -225 -315 -509 -390 -630 -122 -196 -547 -881 -656 -1058
l-42 -68 -20 28 c-10 15 -108 172 -217 348 -109 176 -279 451 -378 610 -231
372 -370 598 -601 970 -102 165 -205 332 -229 371 l-45 71 -113 41 c-157 56
-920 334 -1229 447 -140 52 -338 124 -440 160 -102 36 -308 111 -458 167 -150
55 -275 99 -277 96 -2 -2 49 -84 113 -184 64 -99 132 -205 151 -235 19 -30 71
-110 116 -179 44 -69 119 -185 165 -258 47 -73 115 -179 151 -235 36 -56 118
-183 182 -282 109 -169 418 -650 517 -805 102 -160 620 -964 695 -1080 131
-202 734 -1141 803 -1250 l64 -100 -20 -33 c-16 -27 -203 -322 -401 -635 -25
-40 -62 -99 -82 -130 -42 -68 -364 -578 -494 -782 -50 -80 -147 -233 -214
-340 -67 -107 -164 -260 -215 -340 -50 -80 -154 -244 -231 -365 -76 -121 -197
-312 -268 -425 -71 -113 -165 -261 -208 -330 -155 -246 -528 -836 -572 -905
-24 -38 -100 -158 -167 -265 -197 -313 -340 -540 -385 -610 -23 -36 -45 -71
-49 -77 -6 -10 190 -13 967 -13 l975 0 228 373 c125 204 306 500 402 657 163
265 517 844 827 1350 72 118 188 307 257 420 69 113 242 395 384 627 143 233
264 424 269 424 6 1 50 -63 99 -142 100 -160 417 -671 654 -1054 85 -137 183
-295 217 -350 34 -55 102 -165 152 -245 50 -80 139 -224 198 -320 59 -96 200
-323 313 -505 113 -181 233 -375 267 -430 232 -374 357 -576 424 -682 l76
-123 974 0 973 0 -14 22 c-8 13 -71 111 -140 218 -69 107 -203 317 -298 465
-362 564 -426 665 -538 840 -63 99 -163 254 -222 345 -163 253 -292 455 -320
500 -14 22 -71 111 -126 198 -56 86 -204 317 -329 512 -125 195 -242 378 -260
405 -17 28 -126 196 -240 375 -438 685 -621 970 -708 1103 -49 77 -91 147 -94
157 -3 11 11 42 35 77 21 32 84 130 139 218 55 88 144 228 196 310 53 83 124
195 158 250 35 55 91 143 124 195 34 52 100 156 147 230 47 74 211 333 365
575 154 242 366 577 473 745 106 168 208 328 225 355 18 28 68 106 112 175 44
69 167 262 273 430 106 168 243 384 305 480 61 96 183 288 270 425 87 138 162
256 168 263 6 8 5 12 -4 11 -8 0 -340 -119 -739 -265z"/>
</g>
</svg>
